<svg width="34" height="34" viewBox="0 0 34 34" fill="none" xmlns="http://www.w3.org/2000/svg">
<path d="M9.92886 24.0711C6.02563 20.1678 6.02563 13.8322 9.92886 9.92893C13.8321 6.0257 20.1678 6.0257 24.071 9.92893C27.9742 13.8322 27.9742 20.1678 24.071 24.0711C20.1678 27.9743 13.8321 27.9743 9.92886 24.0711ZM20.2243 19.4749L20.2243 15.2322C20.2243 15.0201 20.1395 14.8363 20.0051 14.7019C19.8708 14.5676 19.6869 14.4827 19.4748 14.4827C19.0647 14.4827 18.7253 14.8221 18.7253 15.2322L18.7253 17.6647L15.0554 13.9948C14.7655 13.7049 14.2846 13.7049 13.9947 13.9948C13.7048 14.2847 13.7048 14.7655 13.9947 15.0555L17.6646 18.7253L15.2322 18.7253C14.822 18.7253 14.4826 19.0648 14.4826 19.4749C14.4826 19.885 14.822 20.2244 15.2322 20.2244L19.4748 20.2244C19.8849 20.2244 20.2243 19.885 20.2243 19.4749Z" fill="#17B889"/>
</svg>
