<svg width="200" height="64" viewBox="0 0 200 64" fill="none" xmlns="http://www.w3.org/2000/svg">
<path d="M67.9438 42V22.8587H80.6618V25.9418H71.438V30.8492H80.148V33.9324H71.438V38.9168H80.6618V42H67.9438ZM87.1809 42.3083C86.2045 42.3083 85.3566 42.1456 84.6372 41.8201C83.9178 41.4947 83.3612 41.0322 82.9672 40.4327C82.5732 39.8161 82.3763 39.1052 82.3763 38.3002C82.3763 37.5294 82.5475 36.8443 82.8901 36.2448C83.2327 35.6281 83.7637 35.1143 84.4831 34.7032C85.2025 34.2921 86.1103 34.0009 87.2065 33.8296L91.7799 33.0845V35.6538L87.8489 36.3218C87.1809 36.4417 86.6841 36.6558 86.3587 36.9642C86.0332 37.2725 85.8705 37.675 85.8705 38.1717C85.8705 38.6513 86.0504 39.0367 86.4101 39.3279C86.7869 39.602 87.2494 39.739 87.7975 39.739C88.4998 39.739 89.1164 39.5934 89.6474 39.3022C90.1955 38.9939 90.6152 38.5743 90.9064 38.0433C91.2147 37.5123 91.3688 36.9299 91.3688 36.2961V32.6991C91.3688 32.0996 91.129 31.6029 90.6494 31.2089C90.1869 30.7978 89.5703 30.5923 88.7995 30.5923C88.0801 30.5923 87.4378 30.7893 86.8725 31.1832C86.3244 31.56 85.9219 32.0653 85.665 32.6991L82.9158 31.3631C83.1899 30.6265 83.6181 29.9928 84.2005 29.4618C84.8 28.9137 85.5022 28.4854 86.3073 28.1771C87.1123 27.8688 87.9859 27.7147 88.928 27.7147C90.0756 27.7147 91.0862 27.9288 91.9598 28.357C92.8333 28.7681 93.5099 29.3504 93.9895 30.1041C94.4863 30.8406 94.7346 31.7056 94.7346 32.6991V42H91.5487V39.6105L92.2681 39.5592C91.9084 40.1587 91.4802 40.664 90.9834 41.075C90.4867 41.469 89.9215 41.7773 89.2877 42C88.6539 42.2055 87.9516 42.3083 87.1809 42.3083ZM96.6379 42V39.2765L104.757 29.8729L105.271 31.0291H96.9976V28.023H108.251V30.7721L100.286 40.1758L99.7725 39.0196H108.303V42H96.6379ZM110.215 42V28.023H113.581V42H110.215ZM110.215 26.4557V22.8587H113.581V26.4557H110.215ZM118.307 42V31.0291H115.841V28.023H118.307V27.5605C118.307 26.4985 118.522 25.5993 118.95 24.8627C119.395 24.1091 120.012 23.5352 120.8 23.1413C121.588 22.7473 122.521 22.5503 123.6 22.5503C123.806 22.5503 124.028 22.5675 124.268 22.6017C124.525 22.6189 124.739 22.6446 124.911 22.6788V25.5821C124.739 25.5479 124.577 25.5307 124.422 25.5307C124.285 25.5136 124.157 25.505 124.037 25.505C123.283 25.505 122.701 25.6763 122.29 26.0189C121.879 26.3444 121.673 26.8582 121.673 27.5605V28.023H127.788V31.0291H121.673V42H118.307ZM127.094 42V22.5503H130.486V42H127.094ZM135.296 47.6525C134.919 47.6525 134.551 47.6182 134.191 47.5497C133.831 47.4983 133.506 47.3955 133.215 47.2414V44.4408C133.437 44.4922 133.703 44.5436 134.011 44.595C134.337 44.6464 134.636 44.6721 134.91 44.6721C135.681 44.6721 136.238 44.4922 136.58 44.1325C136.94 43.79 137.257 43.3275 137.531 42.7451L138.456 40.5869L138.405 43.4131L132.315 28.023H135.938L140.203 39.3793H138.918L143.158 28.023H146.806L140.717 43.4131C140.357 44.3038 139.921 45.066 139.407 45.6998C138.893 46.3336 138.293 46.8132 137.608 47.1386C136.94 47.4812 136.169 47.6525 135.296 47.6525Z" fill="#07070D"/>
<path d="M184 45.7059C184 47.495 182.55 48.9453 180.76 48.9453C178.971 48.9453 177.521 47.495 177.521 45.7059L177.521 18.2953C177.521 16.5062 178.971 15.0559 180.76 15.0559C182.55 15.0559 184 16.5062 184 18.2953L184 45.7059Z" fill="#28B16D"/>
<path d="M172.786 45.7059C172.786 47.495 171.336 48.9453 169.547 48.9453C167.757 48.9453 166.307 47.495 166.307 45.7059L166.307 34.2433C166.307 32.4542 167.757 31.0038 169.547 31.0038C171.336 31.0038 172.786 32.4542 172.786 34.2433L172.786 45.7059Z" fill="#28B16D"/>
<path d="M161.573 45.7059C161.573 47.495 160.122 48.9453 158.333 48.9453C156.544 48.9453 155.094 47.495 155.094 45.7059C155.094 43.9168 156.544 42.4664 158.333 42.4664C160.122 42.4664 161.573 43.9168 161.573 45.7059Z" fill="#28B16D"/>
</svg>
